<svg width="64" height="64" viewBox="0 0 64 64" fill="none" xmlns="http://www.w3.org/2000/svg">
  <defs>
    <linearGradient id="phantom-gradient" x1="14" y1="10" x2="54" y2="54" gradientUnits="userSpaceOnUse">
      <stop stop-color="#9c6dff" />
      <stop offset="1" stop-color="#5632e1" />
    </linearGradient>
  </defs>
  <rect x="4" y="4" width="56" height="56" rx="16" fill="url(#phantom-gradient)" />
  <path d="M21 28.5C21 22.701 25.701 18 31.5 18H36.5C42.299 18 47 22.701 47 28.5C47 34.299 42.299 39 36.5 39C35.74 39 34.998 38.918 34.281 38.759C32.49 42.067 29.086 44.5 25 44.5C22.514 44.5 20.251 43.596 18.492 42.046C18.175 41.763 18 41.354 18 40.926V37.5C18 32.701 21.701 29 26.5 29H31C31.552 29 32 28.552 32 28C32 27.448 31.552 27 31 27H26.5C23.468 27 21 24.532 21 21.5V28.5Z" fill="white" />
  <circle cx="38.5" cy="28" r="2.5" fill="#26105f" />
</svg>
