<svg width="64" height="64" viewBox="0 0 64 64" fill="none" xmlns="http://www.w3.org/2000/svg">
  <rect x="4" y="4" width="56" height="56" rx="16" fill="#1c2b64" />
  <path d="M20.8 26.6C27.4 20.1 36.6 20.1 43.2 26.6L45.4 28.8C46 29.4 46 30.4 45.4 31L42.6 33.8C42 34.4 41 34.4 40.4 33.8L38 31.4C34.7 28.2 29.3 28.2 26 31.4L23.6 33.8C23 34.4 22 34.4 21.4 33.8L18.6 31C18 30.4 18 29.4 18.6 28.8L20.8 26.6Z" fill="#6ad1ff" />
  <path d="M25.2 36.2C29 32.4 34.6 32.4 38.4 36.2L40.6 38.4C41.2 39 41.2 40 40.6 40.6L38.6 42.6C38 43.2 37 43.2 36.4 42.6L34.8 41C32.5 38.7 31.1 38.7 28.8 41L27.2 42.6C26.6 43.2 25.6 43.2 25 42.6L23 40.6C22.4 40 22.4 39 23 38.4L25.2 36.2Z" fill="#6ad1ff" />
</svg>
