<svg width="200" height="200" viewBox="0 0 200 200" fill="none" xmlns="http://www.w3.org/2000/svg">
  <defs>
    <linearGradient id="wave16b_mid" x1="0%" y1="100%" x2="100%" y2="0%">
      <stop offset="0%" stop-color="#311857" />
      <stop offset="100%" stop-color="#5F3ED7" />
    </linearGradient>
    <linearGradient id="wave16b_high" x1="0%" y1="100%" x2="100%" y2="0%">
      <stop offset="0%" stop-color="#F2E9FF" />
      <stop offset="100%" stop-color="#8362FF" />
    </linearGradient>
    <linearGradient id="horizon16b" x1="0%" y1="50%" x2="100%" y2="50%">
      <stop offset="0%" stop-color="#31205E" />
      <stop offset="100%" stop-color="#120728" />
    </linearGradient>
    <radialGradient id="orb16b" cx="60%" cy="35%" r="35%">
      <stop offset="0%" stop-color="#FFEAF8" />
      <stop offset="100%" stop-color="#926DFF" />
    </radialGradient>
  </defs>
  <rect width="200" height="200" rx="56" fill="#030111" />
  <path d="M34 120C54 108 80 100 102 104C124 108 146 100 166 88V168H34V120Z" fill="url(#horizon16b)" />
  <path d="M34 130C54 118 78 112 100 116C126 120 146 110 166 98V168H34V130Z" fill="url(#wave16b_mid)" />
  <path d="M34 142C56 130 78 126 104 130C130 134 150 124 166 114V168H34V142Z" fill="url(#wave16b_high)" opacity="0.85" />
  <circle cx="132" cy="68" r="22" fill="url(#orb16b)" />
  <path d="M112 70C126 66 140 68 152 76" stroke="#F4EFFF" stroke-width="6" stroke-linecap="round" opacity="0.4" />
</svg>
